<?xml version="1.0" standalone="no"?>
<!DOCTYPE svg PUBLIC "-//W3C//DTD SVG 20010904//EN"
 "http://www.w3.org/TR/2001/REC-SVG-20010904/DTD/svg10.dtd">
<svg version="1.0" xmlns="http://www.w3.org/2000/svg"
 width="920.000000pt" height="920.000000pt" viewBox="0 0 920.000000 920.000000"
 preserveAspectRatio="xMidYMid meet">

<g transform="translate(0.000000,920.000000) scale(0.100000,-0.100000)"
fill="#3f1174" stroke="none">
<path d="M4307 9189 c-342 -20 -702 -87 -1052 -194 -1299 -397 -2373 -1372
-2900 -2633 -180 -432 -282 -839 -337 -1352 -15 -148 -15 -670 0 -820 55 -519
161 -939 347 -1375 343 -805 907 -1498 1625 -1995 831 -576 1840 -865 2832
-812 783 42 1497 260 2148 655 956 580 1679 1497 2012 2547 332 1052 280 2171
-148 3178 -379 890 -1032 1643 -1864 2149 -470 286 -1031 498 -1550 587 -394
68 -735 88 -1113 65z m573 -1149 c641 -55 1280 -298 1784 -679 756 -573 1229
-1385 1363 -2341 25 -177 25 -663 0 -840 -120 -859 -512 -1600 -1140 -2156
-524 -465 -1156 -754 -1857 -849 -165 -22 -514 -30 -695 -16 -456 37 -916 169
-1314 377 -188 99 -326 186 -491 310 -748 565 -1227 1388 -1355 2324 -22 165
-30 514 -16 695 48 595 255 1183 589 1670 431 631 1060 1106 1777 1343 223 74
557 143 780 161 145 12 442 12 575 1z"/>
<path d="M4505 6894 c-176 -28 -341 -137 -409 -272 -62 -123 -60 -98 -66 -802
l-5 -645 -645 -5 c-546 -5 -653 -8 -695 -21 -174 -55 -290 -169 -352 -346 -24
-69 -27 -93 -27 -203 0 -110 3 -134 27 -203 60 -173 159 -273 337 -341 53 -20
74 -21 705 -26 l650 -5 5 -650 c5 -502 9 -659 19 -690 40 -121 124 -233 221
-295 118 -76 301 -107 457 -77 203 39 341 156 416 354 21 57 22 69 27 708 l5
650 645 5 c712 6 682 3 813 73 72 38 166 137 201 212 40 83 66 197 66 284 -1
267 -140 468 -380 547 -50 17 -111 19 -700 24 l-645 5 -1 620 c-2 554 -4 627
-19 690 -63 250 -255 401 -525 410 -52 2 -108 1 -125 -1z"/>
</g>
</svg>
