<?xml version="1.0" standalone="no"?>
<!DOCTYPE svg PUBLIC "-//W3C//DTD SVG 20010904//EN"
 "http://www.w3.org/TR/2001/REC-SVG-20010904/DTD/svg10.dtd">
<svg version="1.0" xmlns="http://www.w3.org/2000/svg"
 width="640.000000pt" height="640.000000pt" viewBox="0 0 640.000000 640.000000"
 preserveAspectRatio="xMidYMid meet">

<g transform="translate(0.000000,640.000000) scale(0.100000,-0.100000)"
fill="#3f1174" stroke="none">
<path d="M4878 5979 c-36 -19 -349 -251 -2323 -1729 -517 -387 -999 -747
-1071 -801 -147 -110 -166 -129 -189 -199 -19 -56 -10 -104 27 -161 14 -20
156 -134 343 -274 503 -377 2967 -2221 3090 -2312 151 -112 215 -124 296 -56
65 55 69 77 69 387 0 221 -3 291 -16 339 -20 79 -55 147 -102 199 -32 35 -445
347 -1984 1498 -320 239 -334 254 -326 342 3 27 14 62 24 76 11 15 518 401
1127 857 609 457 1125 848 1147 870 55 54 85 108 110 196 18 66 20 102 20 352
0 297 -4 322 -53 376 -25 27 -98 61 -130 61 -12 -1 -39 -10 -59 -21z"/>
<path d="M4904 3980 c-41 -9 -7 15 -471 -333 -383 -287 -414 -312 -438 -360
-31 -64 -32 -107 -1 -174 23 -49 44 -66 443 -364 259 -194 434 -318 461 -327
78 -26 158 13 202 98 19 38 20 59 20 675 0 551 -2 641 -15 673 -36 85 -118
131 -201 112z"/>
</g>
</svg>
