<?xml version="1.0" standalone="no"?>
<!DOCTYPE svg PUBLIC "-//W3C//DTD SVG 20010904//EN"
 "http://www.w3.org/TR/2001/REC-SVG-20010904/DTD/svg10.dtd">
<svg version="1.0" xmlns="http://www.w3.org/2000/svg"
 width="640.000000pt" height="640.000000pt" viewBox="0 0 640.000000 640.000000"
 preserveAspectRatio="xMidYMid meet">

<g transform="translate(0.000000,640.000000) scale(0.100000,-0.100000)"
fill="#fd0000" stroke="none">
<path d="M1407 5986 c-50 -18 -85 -51 -108 -101 -17 -36 -19 -69 -19 -319 0
-221 3 -291 16 -339 20 -79 55 -147 102 -199 32 -35 445 -347 1984 -1498 320
-239 334 -254 326 -342 -3 -27 -14 -62 -24 -76 -11 -15 -518 -400 -1127 -857
-609 -456 -1125 -848 -1147 -870 -55 -54 -85 -108 -110 -196 -18 -66 -20 -102
-20 -352 0 -297 4 -322 53 -376 24 -26 98 -61 128 -61 48 0 -80 -94 2384 1750
517 387 999 747 1071 801 147 110 166 129 189 199 19 56 10 104 -27 161 -24
35 -71 71 -1478 1124 -448 335 -1094 818 -1435 1073 -340 255 -628 468 -640
472 -45 17 -82 19 -118 6z"/>
<path d="M1405 3977 c-48 -19 -72 -40 -99 -88 l-26 -44 0 -638 c0 -553 2 -643
15 -675 31 -74 90 -114 165 -114 26 0 58 5 70 12 13 7 209 152 436 322 384
288 415 313 439 361 31 64 32 107 1 174 -23 49 -44 66 -443 364 -230 172 -434
318 -453 325 -43 16 -66 16 -105 1z"/>
</g>
</svg>
