<?xml version="1.0" standalone="no"?>
<!DOCTYPE svg PUBLIC "-//W3C//DTD SVG 20010904//EN"
 "http://www.w3.org/TR/2001/REC-SVG-20010904/DTD/svg10.dtd">
<svg version="1.0" xmlns="http://www.w3.org/2000/svg"
 width="900.000000pt" height="900.000000pt" viewBox="0 0 900.000000 900.000000"
 preserveAspectRatio="xMidYMid meet">

<g transform="translate(0.000000,900.000000) scale(0.100000,-0.100000)"
fill="#3f1174" stroke="none">
<path d="M4867 7452 c-100 -97 -261 -251 -357 -342 -96 -91 -224 -214 -284
-274 -60 -59 -207 -200 -327 -312 -119 -112 -271 -256 -337 -321 -67 -65 -157
-152 -202 -193 -63 -59 -232 -227 -318 -316 -10 -10 -44 -14 -127 -14 -62 0
-157 -4 -211 -10 -55 -5 -218 -12 -364 -16 -335 -7 -771 -24 -788 -29 -9 -3
-12 -100 -12 -437 0 -238 -5 -754 -11 -1146 -8 -481 -8 -717 -1 -724 6 -6 195
-11 523 -13 283 -2 622 -7 753 -10 l239 -7 186 -171 c102 -94 215 -201 251
-237 36 -36 120 -114 185 -174 66 -60 203 -188 305 -285 178 -169 578 -544
725 -681 38 -36 125 -117 192 -181 67 -65 138 -129 157 -144 l36 -27 117 36
c65 20 123 42 129 49 7 9 9 875 5 3015 -6 2971 -6 3004 -26 3015 -43 26 -241
127 -248 127 -5 0 -91 -80 -190 -178z"/>
<path d="M6166 7023 c-19 -32 -58 -101 -87 -153 -28 -52 -60 -106 -69 -120 -9
-14 -34 -56 -55 -95 -21 -38 -44 -79 -51 -90 -8 -11 -14 -26 -14 -35 0 -8 41
-46 91 -84 188 -143 391 -359 522 -556 131 -198 265 -499 316 -712 6 -27 16
-67 21 -90 6 -24 13 -56 15 -73 2 -16 13 -91 24 -165 36 -243 25 -539 -29
-808 -50 -249 -114 -432 -224 -647 -57 -109 -87 -161 -164 -280 -61 -93 -168
-218 -283 -330 -115 -112 -151 -142 -251 -210 -21 -14 -38 -30 -38 -36 0 -5
48 -92 107 -192 58 -100 125 -216 149 -257 63 -111 73 -123 98 -117 11 3 65
19 120 35 83 26 111 40 180 93 371 286 606 571 830 1004 112 215 223 532 263
745 2 13 10 54 18 91 43 204 62 697 36 909 -59 470 -176 832 -391 1208 -147
258 -396 558 -598 719 -54 42 -99 80 -102 83 -32 40 -347 220 -384 220 -8 0
-31 -26 -50 -57z m694 -4457 c0 -2 -8 -10 -17 -17 -16 -13 -17 -12 -4 4 13 16
21 21 21 13z m-40 -49 c0 -2 -10 -12 -22 -23 l-23 -19 19 23 c18 21 26 27 26
19z m-50 -60 c0 -2 -15 -16 -32 -33 l-33 -29 29 33 c28 30 36 37 36 29z m-110
-120 c0 -2 -10 -12 -22 -23 l-23 -19 19 23 c18 21 26 27 26 19z"/>
<path d="M5647 6113 c-24 -43 -68 -118 -97 -168 -66 -112 -85 -146 -134 -231
l-38 -69 38 -30 c243 -193 399 -431 479 -730 15 -56 19 -84 37 -237 26 -231
-29 -524 -142 -748 -80 -160 -232 -348 -351 -436 -27 -19 -49 -43 -49 -52 0
-20 300 -535 318 -546 4 -2 30 0 59 4 29 5 83 12 120 16 67 6 68 7 180 100
223 186 386 406 524 709 166 363 212 813 128 1237 -78 387 -306 793 -589 1043
-113 100 -180 142 -287 180 -142 50 -143 50 -196 -42z m483 -2847 c0 -2 -8
-10 -17 -17 -16 -13 -17 -12 -4 4 13 16 21 21 21 13z m-30 -39 c0 -2 -12 -14
-27 -28 l-28 -24 24 28 c23 25 31 32 31 24z m-50 -60 c0 -2 -17 -19 -37 -38
l-38 -34 34 38 c33 34 41 42 41 34z"/>
</g>
</svg>
