<?xml version="1.0" standalone="no"?>
<!DOCTYPE svg PUBLIC "-//W3C//DTD SVG 20010904//EN"
 "http://www.w3.org/TR/2001/REC-SVG-20010904/DTD/svg10.dtd">
<svg version="1.0" xmlns="http://www.w3.org/2000/svg"
 width="900.000000pt" height="827.000000pt" viewBox="0 0 900.000000 827.000000"
 preserveAspectRatio="xMidYMid meet">

<g transform="translate(0.000000,827.000000) scale(0.100000,-0.100000)"
fill="#3f1174" stroke="none">
<path d="M8825 8264 c-171 -26 -710 -156 -968 -234 -864 -261 -1740 -689
-2572 -1255 -185 -126 -217 -149 -500 -357 l-227 -168 -29 17 c-16 10 -107 83
-202 163 -599 506 -1019 825 -1597 1213 -461 309 -739 468 -931 531 -223 74
-628 85 -908 25 -212 -46 -479 -149 -601 -232 -112 -77 -199 -187 -256 -324
-27 -64 -28 -76 -29 -218 0 -149 0 -151 33 -219 76 -161 143 -218 360 -302
640 -248 1391 -625 2047 -1028 306 -188 944 -621 945 -642 0 -15 -118 -153
-309 -359 -703 -759 -1189 -1371 -1718 -2165 -439 -659 -545 -889 -574 -1239
-36 -438 128 -1046 339 -1264 83 -86 201 -152 332 -188 25 -7 90 -12 145 -12
172 1 312 60 393 166 51 67 77 120 153 308 425 1066 991 2061 1743 3064 198
264 610 775 626 775 31 0 924 -881 1225 -1210 574 -626 1111 -1297 1770 -2210
525 -727 617 -843 685 -865 28 -9 47 8 54 48 18 98 -137 776 -276 1207 -207
640 -521 1322 -901 1955 -96 160 -280 447 -356 555 -356 509 -649 876 -1080
1353 l-152 168 18 30 c44 75 487 490 916 857 580 496 941 774 2107 1617 241
174 434 336 461 387 8 15 8 24 -3 34 -14 15 -112 25 -163 18z"/>
</g>
</svg>
