<?xml version="1.0" standalone="no"?>
<!DOCTYPE svg PUBLIC "-//W3C//DTD SVG 20010904//EN"
 "http://www.w3.org/TR/2001/REC-SVG-20010904/DTD/svg10.dtd">
<svg version="1.0" xmlns="http://www.w3.org/2000/svg"
 width="512.000000pt" height="512.000000pt" viewBox="0 0 512.000000 512.000000"
 preserveAspectRatio="xMidYMid meet">

<g transform="translate(0.000000,512.000000) scale(0.100000,-0.100000)"
fill="#3f1174" stroke="none">
<path d="M2103 4454 c-84 -30 -173 -137 -173 -207 l0 -26 -347 -3 -348 -3 -57
-28 c-131 -64 -198 -195 -198 -389 l0 -98 1590 0 1590 0 0 88 c0 197 -61 322
-192 393 l-63 34 -347 3 -346 3 -7 39 c-14 81 -88 164 -174 195 -63 22 -865
21 -928 -1z"/>
<path d="M1120 3510 c0 -119 122 -2449 130 -2488 39 -183 197 -337 389 -378
98 -20 1765 -20 1863 0 188 40 346 192 387 371 6 28 36 568 66 1200 30 633 57
1187 60 1233 l6 82 -1450 0 -1451 0 0 -20z m879 -499 c14 -9 34 -30 45 -45 21
-27 21 -35 21 -864 l0 -837 -23 -33 c-59 -83 -180 -81 -232 3 -20 32 -20 48
-20 864 0 888 -2 859 48 904 43 39 113 42 161 8z m648 -2 c66 -40 64 -13 61
-924 -3 -772 -4 -823 -21 -848 -58 -89 -190 -86 -239 4 -17 32 -18 79 -18 862
0 904 -3 862 57 905 51 36 101 36 160 1z m637 3 c16 -10 37 -33 47 -52 18 -33
19 -74 19 -855 0 -761 -1 -823 -18 -855 -53 -106 -192 -105 -248 2 -12 23 -14
163 -14 850 0 933 -5 873 80 916 49 24 83 23 134 -6z"/>
</g>
</svg>
