<?xml version="1.0" standalone="no"?>
<!DOCTYPE svg PUBLIC "-//W3C//DTD SVG 20010904//EN"
 "http://www.w3.org/TR/2001/REC-SVG-20010904/DTD/svg10.dtd">
<svg version="1.0" xmlns="http://www.w3.org/2000/svg"
 width="900.000000pt" height="900.000000pt" viewBox="0 0 900.000000 900.000000"
 preserveAspectRatio="xMidYMid meet">

<g transform="translate(0.000000,900.000000) scale(0.100000,-0.100000)"
fill="#3f1174" stroke="none">
<path d="M4125 6001 l-2250 -2251 -186 -932 c-103 -513 -185 -935 -183 -937 2
-2 424 80 937 182 l932 187 2248 2248 2249 2247 -6 105 c-25 485 -432 1035
-941 1270 -155 72 -308 113 -466 125 l-84 7 -2250 -2251z m2573 1708 c64 -31
101 -58 158 -116 41 -41 74 -81 74 -89 0 -13 -189 -208 -960 -989 -311 -316
-2962 -3015 -3151 -3209 l-117 -120 -68 63 c-64 59 -216 177 -277 216 -15 10
-26 22 -25 26 2 5 275 282 608 616 605 608 1253 1262 2195 2213 1322 1336
1428 1441 1455 1435 14 -3 62 -24 108 -46z"/>
</g>
</svg>
