<?xml version="1.0" standalone="no"?>
<!DOCTYPE svg PUBLIC "-//W3C//DTD SVG 20010904//EN"
 "http://www.w3.org/TR/2001/REC-SVG-20010904/DTD/svg10.dtd">
<svg version="1.0" xmlns="http://www.w3.org/2000/svg"
 width="840.000000pt" height="693.000000pt" viewBox="0 0 840.000000 693.000000"
 preserveAspectRatio="xMidYMid meet">

<g transform="translate(0.000000,693.000000) scale(0.100000,-0.100000)"
fill="#dc143c" stroke="none">
<path d="M6505 6501 c-325 -58 -711 -235 -1061 -487 -43 -31 -101 -73 -129
-92 -83 -59 -305 -236 -500 -401 -46 -39 -227 -201 -318 -284 -116 -108 -480
-475 -562 -567 -32 -36 -74 -83 -94 -105 -42 -47 -198 -234 -257 -308 -22 -29
-46 -52 -54 -52 -7 0 -43 50 -78 110 -91 155 -216 373 -278 488 -30 53 -79
143 -110 200 -31 56 -117 223 -192 371 -74 149 -159 313 -189 365 -196 341
-441 618 -634 716 -140 72 -325 72 -469 2 -91 -44 -219 -200 -241 -294 -18
-80 -11 -188 18 -260 25 -63 50 -105 188 -318 28 -44 136 -210 240 -370 103
-159 194 -299 202 -310 78 -112 113 -166 143 -215 19 -31 52 -84 73 -116 21
-32 82 -132 137 -221 115 -190 288 -444 530 -776 41 -56 74 -109 74 -117 0 -8
-36 -64 -80 -123 -221 -303 -425 -603 -554 -816 -91 -152 -169 -277 -210 -336
-11 -16 -38 -57 -60 -90 -22 -33 -46 -69 -53 -80 -8 -11 -61 -92 -117 -180
-57 -88 -136 -209 -175 -270 -250 -382 -315 -488 -340 -549 -24 -63 -27 -79
-23 -166 4 -114 27 -168 112 -271 97 -118 199 -164 366 -164 126 0 184 16 290
79 143 86 358 325 511 567 40 63 134 236 209 384 192 379 372 713 515 960 28
50 78 135 110 190 81 139 80 138 118 91 18 -21 59 -70 92 -110 33 -39 82 -98
109 -131 64 -80 183 -211 336 -370 142 -147 515 -507 574 -555 22 -17 75 -63
119 -103 44 -39 89 -78 101 -86 11 -8 59 -47 106 -87 153 -129 328 -260 516
-385 186 -124 266 -171 427 -249 423 -205 809 -263 1021 -154 66 34 89 56 111
104 47 104 -46 210 -285 325 -266 128 -396 198 -525 284 -723 482 -1719 1474
-2194 2184 l-72 108 72 107 c64 95 205 286 305 412 158 199 539 610 785 846
74 71 170 163 214 205 44 43 103 97 131 121 29 23 88 75 131 113 347 304 672
535 942 666 333 161 384 191 451 262 71 75 76 144 17 210 -93 103 -300 141
-542 98z"/>
</g>
</svg>
