<?xml version="1.0" standalone="no"?>
<!DOCTYPE svg PUBLIC "-//W3C//DTD SVG 20010904//EN"
 "http://www.w3.org/TR/2001/REC-SVG-20010904/DTD/svg10.dtd">
<svg version="1.0" xmlns="http://www.w3.org/2000/svg"
 width="900.000000pt" height="900.000000pt" viewBox="0 0 900.000000 900.000000"
 preserveAspectRatio="xMidYMid meet">

<g transform="translate(0.000000,900.000000) scale(0.100000,-0.100000)"
fill="#00fc1d" stroke="none">
<path d="M8014 8591 c-547 -141 -1301 -719 -2505 -1921 -767 -767 -1330 -1374
-2164 -2335 -33 -38 -103 -121 -155 -183 -51 -62 -96 -111 -99 -110 -3 2 -177
89 -386 194 -736 369 -1173 538 -1560 604 -208 36 -348 22 -485 -47 -165 -83
-270 -243 -270 -411 0 -102 21 -131 248 -345 888 -837 1473 -1624 2347 -3157
71 -124 139 -239 153 -257 35 -47 114 -83 182 -83 68 0 147 36 183 83 13 18
69 142 125 277 249 607 415 976 687 1525 818 1649 1761 3032 2895 4245 183
195 591 605 957 958 380 367 437 440 463 595 53 303 -224 468 -616 368z"/>
</g>
</svg>
